Coordinates
version=1
nRows=19
nColumns=33
inDegrees=yes

Units are S.I. units (second, meters, Newtons, ...)
Angles are in degrees.

endheader
time	ground_thorax_rot_x	ground_thorax_rot_y	ground_thorax_rot_z	ground_thorax_tx	ground_thorax_ty	ground_thorax_tz	clav_prot_r	clav_elev_r	scapula_abduction_r	scapula_elevation_r	scapula_upward_rot_r	scapula_winging_r	shoulder_elv_r	plane_of_elev_r	axial_rot_r	elbow_flexion_r	pro_sup_r	wrist_flex_r	wrist_dev_r	clav_prot_l	clav_elev_l	scapula_abduction_l	scapula_elevation_l	scapula_upward_rot_l	scapula_winging_l	shoulder_elv_l	plane_of_elev_l	axial_rot_l	elbow_flexion_l	pro_sup_l	wrist_flex_l	wrist_dev_l
      4.96000000	     37.28672273	      3.59944025	     15.28010258	   -192.96181913	    833.19984034	    -10.88426074	     13.49259429	     36.65257579	     33.27548477	     45.00000000	    -45.00000000	   2077.40557395	  -1734.48885876	     30.53762551	     71.58116517	   -346.76723710	     35.84240705	     17.93499723	      7.18120325	     11.23666175	    -45.00000000	    -33.82349213	     45.00000000	    -45.00000000	   -261.68915836	  -2977.65538835	    146.48267195	    134.29665337	    369.24779008	     32.69487524	      9.43647498	    -21.35529588
      4.97000000	     37.34439307	      3.56505747	     14.98441738	   -193.98441540	    834.66173136	    -10.96562127	     13.33750985	     36.57546445	     33.29030191	     45.00000000	    -45.00000000	   2077.29004840	  -1734.53397401	     30.64028408	     71.17835818	   -346.70346849	     35.66951319	     17.98048983	      7.12623558	     11.05748998	    -45.00000000	    -33.93246315	     45.00000000	    -45.00000000	   -261.30990409	  -2977.64066378	    146.20346291	    133.86332781	    369.34607420	     32.79509034	      9.23749545	    -21.75963581
      4.98000000	     37.35952666	      3.59130375	     14.87402300	   -194.79173394	    836.04399611	    -11.00280093	     13.41994948	     36.53724006	     33.29246440	     45.00000000	    -45.00000000	   2077.32708132	  -1734.44609621	     30.64781671	     71.07655950	   -346.64747013	     35.50711544	     17.95294951	      7.12118928	     11.20857626	    -45.00000000	    -33.89350759	     45.00000000	    -45.00000000	   -261.36068423	  -2977.52109173	    146.45734910	    133.71420690	    369.48627224	     32.94829782	      9.23260916	    -21.57299541
      4.99000000	     37.40522235	      3.61967723	     14.72779445	   -195.39634598	    837.34339550	    -10.98902986	     13.38211368	     36.54670421	     33.34720871	     45.00000000	    -45.00000000	   2077.26335458	  -1734.43237643	     30.70803708	     70.88260784	   -346.63909693	     35.32184833	     17.97125899	      7.10600119	     11.21573322	    -45.00000000	    -33.92444701	     45.00000000	    -45.00000000	   -261.20244168	  -2977.49636762	    146.43041781	    133.57035413	    369.53410727	     33.10231499	      9.11596583	    -21.71320490
      5.00000000	     37.52059928	      3.46632710	     14.39231519	   -195.81101273	    838.54659122	    -10.92793426	     13.41333016	     36.52312022	     33.47193587	     45.00000000	    -45.00000000	   2077.13867510	  -1734.48231888	     30.89920660	     70.56166315	   -346.64590566	     35.11904914	     17.91570453	      7.05259104	     11.28936105	    -45.00000000	    -34.03198714	     45.00000000	    -45.00000000	   -261.17429940	  -2977.49398494	    146.40101205	    133.36897522	    369.68456302	     33.27870668	      9.08455830	    -21.69412078
      5.01000000	     37.56965772	      3.61598789	     14.33562680	   -196.05940168	    839.65967405	    -10.82513568	     13.45010585	     36.52453690	     33.49005642	     45.00000000	    -45.00000000	   2077.18636065	  -1734.29612947	     30.83222715	     70.36816477	   -346.55897847	     34.90960273	     18.03981094	      7.14761749	     11.27270427	    -45.00000000	    -34.09721393	     45.00000000	    -45.00000000	   -261.12115867	  -2977.38061183	    146.47961190	    133.23619448	    369.83422644	     33.44439152	      8.94478410	    -21.79218705
      5.02000000	     37.66136560	      3.56793944	     14.09150430	   -196.15698875	    840.66138357	    -10.69115245	     13.44150672	     36.51853970	     33.62607984	     45.00000000	    -45.00000000	   2077.02699145	  -1734.38175353	     30.97724115	     70.03332821	   -346.60067061	     34.66507761	     17.95394902	      7.06728660	     11.36686129	    -45.00000000	    -34.12922144	     45.00000000	    -45.00000000	   -261.06765557	  -2977.35868145	    146.39690945	    133.07232039	    369.94792391	     33.64126949	      8.87909887	    -21.71432604
      5.03000000	     37.71397200	      3.71918849	     14.08737097	   -196.14471066	    841.57970083	    -10.52854648	     13.50625265	     36.52582557	     33.61377479	     45.00000000	    -45.00000000	   2077.10218672	  -1734.18285229	     30.91310966	     69.89856007	   -346.55187161	     34.43178453	     18.10097252	      7.20176121	     11.32269279	    -45.00000000	    -34.17336572	     45.00000000	    -45.00000000	   -261.04736392	  -2977.26218411	    146.51711973	    133.01106997	    370.07589928	     33.82614874	      8.72432584	    -21.79971822
      5.04000000	     37.80058656	      3.71766095	     13.89714127	   -196.04256072	    842.41607108	    -10.34701495	     13.41248172	     36.51430417	     33.65990440	     45.00000000	    -45.00000000	   2076.99169515	  -1734.19138090	     31.08416284	     69.58334829	   -346.61256956	     34.17638282	     17.97149019	      7.06804849	     11.44592721	    -45.00000000	    -34.27676955	     45.00000000	    -45.00000000	   -260.96608259	  -2977.24065559	    146.40467653	    132.87161620	    370.16967851	     34.03764069	      8.65222909	    -21.69598692
      5.05000000	     37.85226759	      3.85923408	     13.89432149	   -195.87008338	    843.18317059	    -10.15279632	     13.48533965	     36.50732272	     33.65060438	     45.00000000	    -45.00000000	   2077.03849963	  -1733.98480106	     31.04392587	     69.52228334	   -346.54127623	     33.97922168	     18.13504050	      7.20950777	     11.42560848	    -45.00000000	    -34.35281363	     45.00000000	    -45.00000000	   -260.98904621	  -2977.13650941	    146.51799369	    132.86789441	    370.30262585	     34.21951289	      8.47438933	    -21.76612220
      5.06000000	     37.93659983	      3.80922529	     13.71461525	   -195.62435709	    843.88113256	     -9.95624733	     13.39074114	     36.48699359	     33.75508977	     45.00000000	    -45.00000000	   2076.88165763	  -1733.99510698	     31.26122224	     69.28194210	   -346.55007700	     33.77856499	     17.93115200	      6.95107411	     11.53706148	    -45.00000000	    -34.48266184	     45.00000000	    -45.00000000	   -260.87582079	  -2977.09754227	    146.32607910	    132.78028188	    370.41688663	     34.43259996	      8.41838333	    -21.63953265
      5.07000000	     38.00569552	      3.78981579	     13.74176223	   -195.31588084	    844.52017944	     -9.76076711	     13.61787243	     36.59452376	     34.17159011	     45.00000000	    -45.00000000	   2076.90724496	  -1733.92385529	     30.97801045	     69.50910994	   -346.41284561	     33.71050077	     18.27867161	      7.29668810	     11.43409225	    -45.00000000	    -34.38533732	     45.00000000	    -45.00000000	   -261.02490740	  -2976.96125715	    146.57155855	    132.91362579	    370.49617535	     34.61993452	      8.17319159	    -21.71483111
      5.08000000	     38.09297071	      3.86476018	     13.46647957	   -194.93676649	    845.09798172	     -9.57432119	     13.58679181	     36.50192597	     33.87355865	     45.00000000	    -45.00000000	   2076.64055132	  -1733.96243146	     31.51788997	     69.19878155	   -346.55492788	     33.59864424	     17.75193745	      6.65732503	     11.45968215	    -45.00000000	    -34.59215764	     45.00000000	    -45.00000000	   -260.84940737	  -2976.98102914	    146.14296492	    132.77711352	    370.58864303	     34.89252013	      8.24658818	    -21.56654669
      5.09000000	     38.16606735	      4.05801336	     13.63690949	   -194.48982056	    845.63064964	     -9.39611944	     13.54905123	     36.53307329	     34.01854915	     45.00000000	    -45.00000000	   2076.82218344	  -1733.77138773	     31.17755283	     69.35489392	   -346.65336480	     33.70999022	     18.18366294	      7.21835690	     11.54258417	    -45.00000000	    -34.41715315	     45.00000000	    -45.00000000	   -261.03293146	  -2976.84893651	    146.41154629	    132.89298198	    370.50407500	     35.17938938	      7.97226571	    -21.62014707
      5.10000000	     38.18415898	      4.08611048	     13.49219426	   -193.98728769	    846.11919933	     -9.22958241	     13.45294648	     36.53490696	     33.85120303	     45.00000000	    -45.00000000	   2076.79497985	  -1733.69330578	     31.43831916	     69.07560673	   -346.59492149	     33.75849303	     17.83406960	      6.68663183	     11.59929824	    -45.00000000	    -34.89904796	     45.00000000	    -45.00000000	   -260.78084138	  -2976.90503063	    146.21461647	    132.81547885	    370.67456358	     35.49654168	      7.96567941	    -21.48694718
      5.11000000	     38.32166136	      4.12728642	     13.47646550	   -193.45007224	    846.58979519	     -9.06785000	     13.48209128	     36.54275370	     34.18690718	     45.00000000	    -45.00000000	   2076.77627186	  -1733.64653255	     31.22122242	     69.32031433	   -346.56976717	     34.05995664	     18.25668755	      7.20818331	     11.65601320	    -45.00000000	    -34.58530692	     45.00000000	    -45.00000000	   -261.07082403	  -2976.72844300	    146.35151489	    132.95589360	    370.73265238	     35.83546642	      7.74041179	    -21.60517964
      5.12000000	     38.35601917	      4.21029701	     13.38818766	   -192.89177617	    847.04890686	     -8.91136695	     13.56809951	     36.55806181	     34.01744509	     45.00000000	    -45.00000000	   2076.68251971	  -1733.59410626	     31.47228641	     69.01274846	   -346.59216409	     34.28631839	     17.83859215	      6.58136072	     11.59246721	    -45.00000000	    -34.96825140	     45.00000000	    -45.00000000	   -260.79644202	  -2976.80306412	    146.08658461	    132.90687957	    370.83143724	     36.23151787	      7.74245198	    -21.46396596
      5.13000000	     38.46441840	      4.19565091	     13.33906732	   -192.31808239	    847.50634992	     -8.75887412	     13.52014425	     36.57809422	     34.38814847	     45.00000000	    -45.00000000	   2076.61702762	  -1733.58752830	     31.29387086	     69.27275263	   -346.45060829	     34.76390865	     18.25276280	      7.06376242	     11.65903315	    -45.00000000	    -34.68323986	     45.00000000	    -45.00000000	   -261.09824700	  -2976.56461422	    146.22920095	    133.06577380	    370.91639797	     36.65336793	      7.53056624	    -21.58460987
      5.14000000	     38.50622397	      4.28130853	     13.27354351	   -191.73634334	    847.96782626	     -8.61037647	     13.65523724	     36.58881935	     34.23924437	     45.00000000	    -45.00000000	   2076.60645203	  -1733.53000778	     31.44152380	     69.02749748	   -346.50864142	     35.16172921	     17.92569290	      6.54208181	     11.60446193	    -45.00000000	    -35.00433347	     45.00000000	    -45.00000000	   -260.84679865	  -2976.62986049	    145.99365913	    133.03923915	    370.95178726	     37.11899771	      7.51977521	    -21.46999037
